<svg width="800" height="800" viewBox="0 0 800 800" fill="none" xmlns="http://www.w3.org/2000/svg">
<g clip-path="url(#clip0_311_539)">
<path d="M704.515 290.619C686.033 246.942 659.619 207.734 625.925 174.067C592.26 140.399 553.05 113.959 509.398 95.5017C464.183 76.3616 416.149 66.6689 366.662 66.6689C317.163 66.6689 269.153 76.3616 223.938 95.5017C180.273 113.959 141.052 140.399 107.385 174.067C73.7178 207.734 47.2899 246.944 28.8218 290.619C9.69267 335.836 -1.14441e-05 383.857 -1.14441e-05 433.344C-1.14441e-05 482.832 9.69267 530.853 28.8202 576.07C47.2899 619.722 73.7178 658.955 107.385 692.623C141.051 726.288 180.273 752.705 223.938 771.186C269.153 790.301 317.163 799.995 366.662 799.995C416.149 799.995 464.183 790.303 509.398 771.186C553.051 752.705 592.26 726.288 625.925 692.623C659.618 658.955 686.033 619.722 704.515 576.07C723.63 530.853 733.325 482.832 733.325 433.344C733.323 383.857 723.63 335.836 704.515 290.619Z" fill="#2196F3"/>
<path d="M543.432 256.563C496.214 209.347 433.445 183.345 366.662 183.345C299.878 183.345 237.098 209.347 189.88 256.563C142.662 303.779 116.662 366.573 116.662 433.344C116.662 500.116 142.663 562.885 189.88 610.126C237.096 657.344 299.878 683.344 366.662 683.344C433.445 683.344 496.214 657.343 543.432 610.126C590.672 562.886 616.674 500.118 616.674 433.344C616.674 366.572 590.672 303.779 543.432 256.563Z" fill="#E6E9ED"/>
<path d="M366.662 299.995C293.14 299.995 233.324 359.809 233.324 433.344C233.324 506.855 293.138 566.669 366.662 566.669C440.185 566.669 499.999 506.855 499.999 433.344C499.999 359.809 440.185 299.995 366.662 299.995Z" fill="#2196F3"/>
<path d="M799.07 128.999C796.947 122.969 791.551 118.672 785.179 117.964L692.357 107.638L682.053 14.8399C681.346 8.46767 677.049 3.07208 670.995 0.946972C664.965 -1.17657 658.227 0.361005 653.686 4.87842L535.84 122.75C533.13 125.46 531.421 129.049 531.055 132.882L522.534 218.649C521.9 225.143 525.099 231.416 530.738 234.712C533.351 236.226 536.232 236.959 539.137 236.959C542.506 236.959 545.875 235.957 548.754 233.907L607.787 192.208L566.087 251.266C562.327 256.588 562.01 263.618 565.305 269.259C568.309 274.434 573.803 277.536 579.686 277.536C580.247 277.536 580.784 277.511 581.345 277.463L667.136 268.965C670.969 268.575 674.533 266.89 677.266 264.156L795.112 146.311C799.656 141.792 801.169 135.054 799.07 128.999Z" fill="#F6BB42"/>
<path d="M366.662 449.995C362.39 449.995 358.129 448.384 354.871 445.112C348.365 438.618 348.365 428.072 354.884 421.553L406.2 370.235C412.707 363.715 423.267 363.715 429.784 370.235C436.278 376.729 436.278 387.299 429.784 393.794L378.443 445.112C375.194 448.384 370.922 449.995 366.662 449.995Z" fill="#434A54"/>
<path d="M689.06 110.957C686.229 108.126 681.222 104.757 673.436 104.757C658.104 104.757 628.977 118.208 520.676 215.767C461.888 268.745 406.883 322.407 406.346 322.944C403.135 326.095 401.317 330.392 401.317 334.884V382.002C401.317 391.207 408.788 398.678 417.992 398.678H465.135C469.627 398.678 473.924 396.872 477.049 393.648C477.635 393.062 536.18 333.076 591.428 271.309C624.069 234.81 649.241 204.781 666.257 182.026C676.902 167.794 684.324 156.514 688.962 147.481C692.04 141.499 701.39 123.286 689.06 110.957Z" fill="#FFCE54"/>
</g>
<defs>
<clipPath id="clip0_311_539">
<rect width="800" height="800" fill="white"/>
</clipPath>
</defs>
</svg>
